<svg width="500" height="500" viewBox="0 0 500 500" fill="none" xmlns="http://www.w3.org/2000/svg">
<path d="M173.833 0H193.489V262.54C193.489 324.33 238.845 375.527 298.081 384.653C303.524 368.196 306.511 350.291 306.511 331.564V91.6989H326.167H392.506H439.189H461.302H480.651H500C480.651 91.6989 461.302 91.6989 461.302 136.1V167.471V198.842V264.566C461.302 343.949 396.95 408.301 317.568 408.301C315.12 408.301 312.686 408.24 310.268 408.119C286.397 462.687 238.112 500 182.432 500C103.05 500 38.6978 424.156 38.6978 330.598V165.299V44.4015C38.6978 0 0 0 0 0H38.6978H173.833Z" fill="#2E444F"/>
</svg>
